<svg id="svg" version="1.1" xmlns="http://www.w3.org/2000/svg" xmlns:xlink="http://www.w3.org/1999/xlink" width="400" height="400" viewBox="0, 0, 400,400"><g id="svgg"><path id="path0" d="M232.800 199.000 L 232.800 248.000 238.200 248.000 L 243.600 248.000 243.600 233.200 L 243.600 218.400 245.186 218.400 L 246.773 218.400 258.654 233.200 L 270.535 248.000 277.503 248.000 L 284.472 248.000 281.916 244.900 C 272.494 233.472,256.800 213.992,256.800 213.725 C 256.800 213.549,263.144 207.058,270.898 199.302 L 284.996 185.200 278.120 185.200 L 271.245 185.200 258.670 197.600 C 247.587 208.530,245.948 210.000,244.848 210.000 L 243.600 210.000 243.600 180.000 L 243.600 150.000 238.200 150.000 L 232.800 150.000 232.800 199.000 M179.630 184.012 C 165.496 186.971,157.859 197.187,157.293 213.894 C 156.507 237.069,165.839 249.283,184.800 249.898 C 204.722 250.543,214.958 239.047,214.984 216.000 C 215.004 198.080,209.000 188.250,195.800 184.590 C 192.993 183.811,182.397 183.432,179.630 184.012 M313.999 184.194 C 298.938 187.199,290.589 201.802,292.379 222.012 C 294.060 240.988,303.196 249.796,321.200 249.799 C 333.295 249.801,340.118 246.185,344.371 237.519 C 347.064 232.033,347.288 232.391,340.321 231.082 L 337.243 230.504 336.240 232.555 C 332.282 240.643,321.375 243.673,312.693 239.097 C 307.311 236.261,304.000 229.353,304.000 220.965 L 304.000 218.400 325.200 218.400 L 346.400 218.400 346.386 212.300 C 346.336 190.386,334.491 180.106,313.999 184.194 M53.671 185.753 C 53.742 186.057,58.747 200.187,64.793 217.153 L 75.786 248.000 80.202 248.000 L 84.618 248.000 91.727 228.295 C 95.637 217.458,99.216 207.288,99.681 205.695 C 100.709 202.171,100.823 202.149,101.729 205.300 C 102.125 206.675,105.636 216.800,109.532 227.800 L 116.615 247.800 121.066 247.913 L 125.516 248.025 126.107 246.313 C 126.432 245.371,131.401 231.345,137.149 215.145 C 142.897 198.944,147.600 185.574,147.600 185.433 C 147.600 185.292,145.232 185.227,142.337 185.288 L 137.074 185.400 129.144 208.952 C 124.783 221.906,121.140 232.256,121.049 231.952 C 120.958 231.649,117.399 221.006,113.142 208.302 L 105.400 185.204 101.392 185.202 L 97.383 185.200 90.434 204.632 C 86.612 215.319,82.908 225.894,82.202 228.132 L 80.920 232.200 80.064 229.400 C 79.594 227.860,76.012 217.286,72.105 205.902 L 65.000 185.204 59.271 185.202 C 54.599 185.200,53.565 185.302,53.671 185.753 M193.308 193.696 C 204.934 199.070,207.727 225.746,197.778 236.382 C 191.153 243.465,178.380 242.596,172.961 234.696 C 166.631 225.469,167.477 204.957,174.502 197.336 C 178.969 192.489,187.235 190.890,193.308 193.696 M328.101 193.921 C 332.763 196.216,334.853 199.841,335.124 206.100 L 335.293 210.000 319.847 210.000 L 304.400 210.000 304.400 208.821 C 304.400 197.046,317.596 188.750,328.101 193.921 " stroke="none" fill="#d2a204" fill-rule="evenodd"></path><path id="path1" d="M0.000 200.000 L 0.000 400.000 200.000 400.000 L 400.000 400.000 400.000 200.000 L 400.000 0.000 200.000 0.000 L 0.000 0.000 0.000 200.000 M243.903 179.700 L 244.005 209.600 245.305 209.600 C 246.477 209.600,247.809 208.396,258.800 197.400 L 270.995 185.200 278.195 185.200 L 285.396 185.200 271.114 199.500 L 256.831 213.800 270.040 230.000 C 277.305 238.910,283.610 246.695,284.052 247.300 L 284.854 248.400 277.723 248.400 L 270.592 248.400 258.996 233.930 C 245.534 217.133,246.662 218.400,245.176 218.400 L 244.010 218.400 243.905 233.300 L 243.800 248.200 238.200 248.200 L 232.600 248.200 232.497 199.400 C 232.440 172.560,232.482 150.370,232.589 150.089 C 232.737 149.700,234.106 149.604,238.292 149.689 L 243.800 149.800 243.903 179.700 M191.813 183.627 C 208.674 185.972,217.571 200.374,215.247 221.561 C 213.179 240.406,203.374 250.135,186.400 250.184 C 168.389 250.237,158.917 240.742,157.112 220.828 C 154.841 195.768,169.111 180.470,191.813 183.627 M329.504 184.192 C 341.130 186.981,346.790 196.507,346.798 213.300 L 346.800 218.400 325.345 218.400 L 303.890 218.400 304.168 221.826 C 305.126 233.634,309.792 239.633,318.918 240.790 C 326.495 241.750,333.306 238.443,336.045 232.472 C 337.144 230.076,336.718 230.161,342.280 231.234 C 347.476 232.236,347.029 231.773,345.842 234.928 C 341.958 245.245,333.818 250.233,321.000 250.149 C 301.372 250.021,292.141 239.384,292.233 217.000 C 292.334 192.214,307.455 178.903,329.504 184.192 M71.838 204.400 C 75.448 214.850,78.971 225.249,79.667 227.508 L 80.932 231.617 82.259 227.308 C 82.988 224.939,86.626 214.540,90.343 204.200 L 97.101 185.400 101.404 185.400 L 105.707 185.400 113.225 207.767 C 117.359 220.069,120.842 230.509,120.964 230.967 C 121.156 231.689,124.813 221.259,135.925 188.300 L 136.970 185.200 142.476 185.200 L 147.982 185.200 146.390 189.700 C 145.514 192.175,140.494 206.350,135.234 221.200 L 125.670 248.200 121.135 248.310 L 116.600 248.420 109.260 227.667 C 105.223 216.254,101.721 206.169,101.477 205.258 C 100.861 202.947,100.740 203.078,99.233 207.700 C 98.497 209.955,94.949 219.965,91.348 229.944 C 87.747 239.923,84.800 248.158,84.800 248.244 C 84.800 248.330,82.730 248.400,80.200 248.400 C 77.670 248.400,75.600 248.331,75.600 248.248 C 75.600 248.164,71.108 235.482,65.618 220.067 C 60.128 204.651,55.091 190.495,54.426 188.609 L 53.215 185.179 59.245 185.290 L 65.275 185.400 71.838 204.400 M182.871 192.803 C 173.701 194.741,169.136 202.679,169.071 216.800 C 169.002 231.786,173.797 239.559,183.882 240.810 C 195.314 242.228,202.616 234.308,203.470 219.564 C 204.527 201.302,195.870 190.055,182.871 192.803 M317.363 192.812 C 310.816 194.110,306.170 199.692,304.637 208.100 L 304.364 209.600 319.838 209.600 L 335.313 209.600 335.098 206.300 C 334.449 196.318,327.259 190.850,317.363 192.812 " stroke="none" fill="#040404" fill-rule="evenodd"></path><path id="path2" d="M232.594 199.000 C 232.594 226.060,232.642 237.189,232.700 223.731 C 232.758 210.273,232.758 188.133,232.700 174.531 C 232.642 160.929,232.594 171.940,232.594 199.000 M243.790 179.800 C 243.790 196.300,243.839 203.108,243.900 194.930 C 243.960 186.751,243.960 173.251,243.900 164.930 C 243.839 156.608,243.790 163.300,243.790 179.800 M266.597 203.700 L 256.600 213.800 266.700 203.803 C 276.085 194.513,276.980 193.600,276.697 193.600 C 276.640 193.600,272.095 198.145,266.597 203.700 M156.893 218.800 C 156.893 219.570,156.975 219.885,157.076 219.500 C 157.176 219.115,157.176 218.485,157.076 218.100 C 156.975 217.715,156.893 218.030,156.893 218.800 M243.781 233.200 C 243.781 241.450,243.834 244.825,243.899 240.700 C 243.964 236.575,243.964 229.825,243.899 225.700 C 243.834 221.575,243.781 224.950,243.781 233.200 " stroke="none" fill="#523f04" fill-rule="evenodd"></path><path id="path3" d="M280.592 189.700 L 276.600 193.800 280.700 189.808 C 282.955 187.612,284.800 185.767,284.800 185.708 C 284.800 185.418,284.301 185.892,280.592 189.700 M156.914 215.800 C 156.917 216.900,156.995 217.303,157.087 216.695 C 157.179 216.086,157.177 215.186,157.082 214.695 C 156.987 214.203,156.911 214.700,156.914 215.800 " stroke="none" fill="#6b5404" fill-rule="evenodd"></path><path id="path4" d="M235.282 149.896 C 236.758 149.973,239.278 149.973,240.882 149.897 C 242.487 149.821,241.280 149.758,238.200 149.758 C 235.120 149.757,233.807 149.819,235.282 149.896 M268.786 187.500 L 266.600 189.800 268.900 187.614 C 270.165 186.411,271.200 185.376,271.200 185.314 C 271.200 185.017,270.818 185.363,268.786 187.500 M244.305 209.883 C 244.802 209.979,245.522 209.975,245.905 209.875 C 246.287 209.775,245.880 209.696,245.000 209.701 C 244.120 209.705,243.807 209.787,244.305 209.883 M311.874 209.899 C 316.094 209.964,323.114 209.964,327.474 209.900 C 331.833 209.835,328.380 209.782,319.800 209.782 C 311.220 209.782,307.653 209.835,311.874 209.899 M346.551 214.000 C 346.551 216.530,346.616 217.565,346.696 216.300 C 346.775 215.035,346.775 212.965,346.696 211.700 C 346.616 210.435,346.551 211.470,346.551 214.000 M215.314 215.800 C 215.317 216.900,215.395 217.303,215.487 216.695 C 215.579 216.086,215.577 215.186,215.482 214.695 C 215.387 214.203,215.311 214.700,215.314 215.800 M116.753 248.114 C 116.926 248.287,119.033 248.376,121.434 248.312 L 125.800 248.196 121.118 247.998 C 118.544 247.889,116.579 247.941,116.753 248.114 M78.115 248.296 C 79.388 248.376,81.368 248.375,82.515 248.294 C 83.662 248.214,82.620 248.149,80.200 248.150 C 77.780 248.151,76.842 248.216,78.115 248.296 M235.282 248.296 C 236.758 248.373,239.278 248.373,240.882 248.297 C 242.487 248.221,241.280 248.158,238.200 248.158 C 235.120 248.157,233.807 248.219,235.282 248.296 M274.100 248.298 C 276.025 248.371,279.175 248.371,281.100 248.298 C 283.025 248.225,281.450 248.165,277.600 248.165 C 273.750 248.165,272.175 248.225,274.100 248.298 M185.305 250.287 C 185.914 250.379,186.814 250.377,187.305 250.282 C 187.797 250.187,187.300 250.111,186.200 250.114 C 185.100 250.117,184.697 250.195,185.305 250.287 M320.505 250.287 C 321.114 250.379,322.014 250.377,322.505 250.282 C 322.997 250.187,322.500 250.111,321.400 250.114 C 320.300 250.117,319.897 250.195,320.505 250.287 " stroke="none" fill="#745404" fill-rule="evenodd"></path></g></svg>